<?xml version="1.0" encoding="UTF-8" standalone="no"?>
<!-- Created with Inkscape (http://www.inkscape.org/) -->

<svg
   xmlns:dc="http://purl.org/dc/elements/1.1/"
   xmlns:cc="http://creativecommons.org/ns#"
   xmlns:rdf="http://www.w3.org/1999/02/22-rdf-syntax-ns#"
   xmlns:svg="http://www.w3.org/2000/svg"
   xmlns="http://www.w3.org/2000/svg"
   xmlns:sodipodi="http://sodipodi.sourceforge.net/DTD/sodipodi-0.dtd"
   xmlns:inkscape="http://www.inkscape.org/namespaces/inkscape"
   width="21.790001mm"
   height="22.186001mm"
   viewBox="0 0 21.790001 22.186001"
   version="1.1"
   id="svg8"
   inkscape:version="0.92.3 (2405546, 2018-03-11)"
   sodipodi:docname="DFicon.svg">
  <defs
     id="defs2" />
  <sodipodi:namedview
     id="base"
     pagecolor="#000000"
     bordercolor="#666666"
     borderopacity="1.0"
     inkscape:pageopacity="1"
     inkscape:pageshadow="2"
     inkscape:zoom="7.9195959"
     inkscape:cx="20.495229"
     inkscape:cy="35.895419"
     inkscape:document-units="mm"
     inkscape:current-layer="g846"
     showgrid="false"
     inkscape:window-width="1920"
     inkscape:window-height="1001"
     inkscape:window-x="-9"
     inkscape:window-y="-9"
     inkscape:window-maximized="1" />
  <metadata
     id="metadata5">
    <rdf:RDF>
      <cc:Work
         rdf:about="">
        <dc:format>image/svg+xml</dc:format>
        <dc:type
           rdf:resource="http://purl.org/dc/dcmitype/StillImage" />
        <dc:title></dc:title>
      </cc:Work>
    </rdf:RDF>
  </metadata>
  <g
     inkscape:label="Layer 1"
     inkscape:groupmode="layer"
     id="layer1"
     transform="translate(0,-274.814)">
    <g
       id="g846"
       transform="matrix(0.26458333,0,0,0.26458333,45.263308,160.17904)">
      <path
         id="path829"
         d="m -90.74648,435.74837 c -0.19,0.12 -0.51,0.31 -0.67,0.32 -0.87,-0.09 -2.12,-0.16 -3.03,0.31 -0.01,0 -0.02,0 -0.03,0.01 0,0 0,0 -0.01,0 -0.03,0.01 -0.05,0.04 -0.07,0.06 -0.02,0.02 -0.05,0.03 -0.07,0.05 -2.57,2.91 -9,7.52 -14.27,9.08 0.35,-0.61 0.59,-1.27 0.72,-1.97 0.59,-3.33 -1.65,-6.31 -1.9,-6.64 -2.23,-2.85 -6.91,-2.86 -8.8,-2.07 -3.23,1.36 -4.52,1.49 -6.77,1.23 -1.42,-0.17 -3.05,-0.72 -4.78,-1.29 -4.7,-1.57 -10.02,-3.34 -12.65,2.17 -0.2,-0.18 -0.39,-0.35 -0.56,-0.51 -0.02,-0.02 -0.05,-0.03 -0.07,-0.05 -0.03,-0.02 -0.05,-0.04 -0.07,-0.05 0,0 0,0 -0.01,0 -0.01,0 -0.02,0 -0.04,-0.01 -0.94,-0.39 -2.18,-0.24 -3.08,-0.08 v 0 c -0.11,0 -0.45,-0.17 -0.65,-0.27 -0.53,-0.27 -1.33,-0.69 -1.75,-0.01 -0.2,0.32 -0.25,0.69 -0.16,1.07 0.14,0.6 0.64,1.21 1.37,1.65 0.45,0.28 0.94,0.37 1.4,0.37 0.54,0 1.03,-0.13 1.37,-0.25 0.29,0.64 0.67,1.32 1.14,2.03 -2.75,7.79 2.62,10.54 5.86,12.18 0.41,2.21 1.88,3.98 4.16,4.98 1.33,0.58 2.85,0.87 4.33,0.87 1.3,0 2.55,-0.23 3.62,-0.66 -0.92,1.83 -2.51,2.41 -3.89,2.66 -3.7,-2.27 -6.95,-0.64 -7.91,-0.05 -7.43,-4.17 -16.73,-7.11 -24.87,-9.45 0,0 -0.02,0 -0.02,0 -0.03,-0.01 -0.06,-0.03 -0.09,-0.04 -0.42,-0.12 -0.73,-0.51 -0.98,-1.27 -0.1,-0.3 -0.31,-0.54 -0.6,-0.68 -0.29,-0.14 -0.62,-0.16 -0.92,-0.06 l -5.09,1.75 c -0.1,0.03 -0.18,0.1 -0.24,0.18 -0.26,0.36 -0.32,0.81 -0.16,1.23 0.16,0.41 0.51,0.72 0.94,0.81 1.2,0.27 3.69,1.09 4.15,1.69 0.04,0.05 0.11,0.13 0.22,0.19 0,0 0,0.02 0.02,0.02 6.24,5.09 15.17,9.44 22.35,12.93 5.61,2.73 10.46,5.1 11.52,6.65 1.21,1.86 1.62,6.43 2.06,11.27 0.13,1.47 0.27,2.97 0.43,4.44 0.56,5.1 1.99,18.65 2.03,19.09 0.03,0.44 -0.25,0.85 -0.88,1.35 -0.25,0.19 -0.41,0.47 -0.44,0.79 -0.04,0.32 0.05,0.64 0.25,0.89 l 3.33,4.23 c 0.06,0.08 0.15,0.14 0.25,0.17 0.12,0.04 0.25,0.06 0.37,0.06 0.3,0 0.6,-0.11 0.84,-0.31 0.34,-0.28 0.51,-0.71 0.46,-1.15 -0.14,-1.22 -0.19,-3.84 0.23,-4.47 0.05,-0.08 0.12,-0.22 0.13,-0.41 3.43,-13.72 4.62,-27.62 3.21,-37.32 0.01,0 0.02,0 0.04,0 0.36,0 0.73,-0.03 1.12,-0.08 0.24,-0.03 0.43,-0.24 0.43,-0.48 0,-0.06 0.19,-6 3.53,-10.67 0.74,-1.04 1.57,-1.82 2.38,-2.57 1.44,-1.35 2.8,-2.63 3.35,-5.07 0,-0.01 0,-0.02 0,-0.04 0.9,-0.29 1.83,-0.7 2.76,-1.23 0.02,0 0.03,-0.02 0.05,-0.03 5.7,-3.22 11.51,-10.27 13.1,-14.55 0.3,0.08 0.7,0.16 1.14,0.16 0.53,0 1.11,-0.11 1.63,-0.48 0.69,-0.49 1.15,-1.13 1.25,-1.74 0.06,-0.39 -0.02,-0.76 -0.24,-1.06 -0.47,-0.65 -1.24,-0.17 -1.75,0.14 z m -51.51,1.83 c 2.23,-4.9 6.94,-3.32 11.51,-1.79 1.78,0.6 3.46,1.16 4.98,1.34 2.4,0.29 3.86,0.13 7.28,-1.3 1.59,-0.67 5.73,-0.65 7.62,1.77 0.09,0.12 2.23,2.9 1.71,5.85 -0.27,1.52 -1.23,2.83 -2.82,3.91 -0.58,-0.54 -1.24,-1.01 -1.95,-1.4 l -0.04,-0.16 c -0.29,-1.17 -0.58,-2.31 -0.78,-2.9 0.43,-0.21 0.76,-0.49 0.93,-0.83 0.38,-0.75 0.18,-1.86 -0.5,-2.94 0.46,-0.2 0.74,-0.53 0.99,-0.9 0.15,-0.23 0.09,-0.54 -0.14,-0.69 -0.23,-0.15 -0.54,-0.09 -0.69,0.14 -0.33,0.5 -0.64,0.97 -3.09,0.46 -1.95,-0.4 -3.2,-0.35 -3.84,0.17 -0.29,0.23 -0.39,0.53 -0.39,0.72 0,0.28 0.21,0.54 0.49,0.55 v 0 c 0.27,0 0.49,-0.18 0.49,-0.45 0,0 0.43,-0.54 3.04,0 0.88,0.18 1.53,0.24 2.06,0.23 0.71,0.95 0.89,1.87 0.68,2.28 -0.08,0.15 -0.34,0.37 -0.83,0.51 -0.65,0.18 -1.36,0.13 -1.81,-0.15 -0.24,-0.14 -0.54,-0.07 -0.69,0.17 -0.15,0.24 -0.07,0.54 0.17,0.69 0.48,0.29 1.03,0.4 1.56,0.4 0.21,0 0.41,-0.02 0.6,-0.05 0.21,0.57 0.6,2.15 0.77,2.85 l 0.16,0.83 c 0.02,0.17 -0.03,0.33 -0.15,0.45 -0.12,0.12 -0.28,0.17 -0.45,0.15 -0.25,-0.04 -0.44,-0.25 -0.45,-0.51 -0.02,-0.68 0.02,-0.94 0.03,-1.01 0.09,-0.42 -0.09,-1.09 -0.39,-1.97 l -0.04,-0.11 c -0.01,-0.07 -0.04,-0.14 -0.09,-0.21 -0.15,-0.2 -0.42,-0.27 -0.64,-0.15 -0.39,0.2 -0.25,0.59 -0.18,0.8 0.13,0.39 0.22,0.67 0.27,0.89 -2.77,-0.69 -4.7,-0.56 -6.57,-0.42 -1.35,0.1 -2.62,0.19 -4.18,-0.03 -4.82,-0.68 -11.18,-4.24 -14.69,-7.07 0.02,-0.03 0.04,-0.05 0.05,-0.07 z m -2.35,0.44 c 0,0 -0.01,-0.01 -0.01,-0.02 0,0 0,-0.02 0,-0.03 -0.01,-0.02 -0.03,-0.04 -0.04,-0.06 -0.02,-0.03 -0.04,-0.06 -0.06,-0.08 -0.02,-0.02 -0.05,-0.04 -0.07,-0.05 -0.03,-0.02 -0.06,-0.04 -0.09,-0.05 -0.03,-0.01 -0.06,-0.01 -0.09,-0.02 -0.03,0 -0.06,-0.01 -0.1,-0.01 -0.03,0 -0.07,0 -0.1,0.02 -0.02,0 -0.05,0 -0.07,0.01 0,0 -0.01,0.01 -0.02,0.01 0,0 -0.02,0 -0.03,0 -0.01,0 -1.36,0.68 -2.28,0.11 -0.49,-0.3 -0.84,-0.69 -0.92,-1.02 -0.02,-0.06 -0.02,-0.12 -0.01,-0.18 0.14,0.05 0.35,0.16 0.49,0.23 0.42,0.22 0.86,0.45 1.33,0.36 0.42,-0.08 1.66,-0.3 2.44,0 3.06,2.95 10.49,7.42 16.11,8.36 -0.7,0.99 -1.02,2.39 -0.89,4 0.08,0.94 0.33,1.99 0.75,2.8 -0.43,-0.11 -0.87,-0.25 -1.34,-0.43 -5.92,-2.28 -13.3,-9.73 -14.98,-13.99 z m 10.85,19.11 c -1.45,-0.64 -3.25,-1.93 -3.62,-4.47 -0.02,-0.16 -0.12,-0.3 -0.27,-0.37 l -0.21,-0.11 c -3.21,-1.63 -7.54,-3.84 -5.61,-10.27 3.12,4.25 8.67,9.18 13.48,11.03 1.36,0.53 2.6,0.79 3.71,0.79 0.27,0 0.53,-0.02 0.79,-0.05 0.06,1.28 -0.03,2.35 -0.24,3.21 -1.99,1.25 -5.47,1.37 -8.03,0.24 z m -36.08,-4.78 c -0.15,-0.03 -0.2,-0.14 -0.22,-0.19 -0.01,-0.03 -0.03,-0.1 -0.01,-0.17 l 4.9,-1.68 c 0.05,-0.02 0.11,-0.01 0.16,0.01 0.03,0.02 0.07,0.04 0.09,0.1 0.23,0.67 0.64,1.58 1.63,1.88 0.02,0.01 0.05,0.03 0.07,0.04 0,0.07 -0.05,0.39 -0.53,0.93 -0.57,0.66 -1.2,1.02 -1.43,1.07 -0.98,-1.12 -4.63,-1.98 -4.66,-1.99 z m 45.73,63.41 c 0.02,0.15 -0.07,0.24 -0.11,0.27 -0.03,0.02 -0.08,0.06 -0.16,0.07 l -3.2,-4.07 c 0,0 -0.05,-0.1 -0.04,-0.15 0,-0.03 0.02,-0.08 0.07,-0.12 0.57,-0.44 1.31,-1.15 1.24,-2.22 h 0.02 c 0,0 0,-0.02 0,-0.02 0.02,-0.01 0.07,-0.02 0.16,-0.02 0.17,0 0.46,0.04 0.89,0.21 0.81,0.32 1.36,0.79 1.48,0.99 -0.74,1.29 -0.34,5.02 -0.34,5.06 z m 0.61,-6.19 c -0.77,-0.62 -2.05,-1.18 -2.9,-1.04 -0.35,-3.29 -1.45,-13.77 -1.93,-18.11 -0.16,-1.46 -0.3,-2.96 -0.43,-4.42 -0.47,-5.19 -0.87,-9.67 -2.22,-11.74 0,0 0,0 0,0 0,0 0,0 0,0 -1.21,-1.78 -5.93,-4.08 -11.91,-6.99 -6.85,-3.34 -15.3,-7.46 -21.41,-12.23 0.84,-0.49 1.85,-1.53 2.04,-2.4 7.96,2.3 16.91,5.2 24.03,9.25 0.08,0.04 0.16,0.06 0.25,0.06 0.11,0 0.22,-0.03 0.3,-0.1 0.13,-0.1 3.24,-2.39 7.01,-0.11 0.02,0.08 0.04,0.15 0.1,0.22 1,1.2 1.87,2.74 2.7,4.23 1.83,3.27 3.72,6.62 7.31,7.18 1.41,9.36 0.31,22.82 -2.94,36.21 z m 13.84,-55.22 c -0.49,2.15 -1.68,3.27 -3.06,4.56 -0.84,0.79 -1.71,1.6 -2.51,2.72 -3.02,4.22 -3.59,9.28 -3.69,10.79 -4.12,0.33 -6.04,-3.1 -8.08,-6.73 -0.76,-1.36 -1.55,-2.74 -2.46,-3.92 2.41,-0.56 3.93,-1.98 4.59,-4.28 0.05,-0.08 0.07,-0.16 0.07,-0.25 0.27,-1.07 0.38,-2.32 0.3,-3.76 0.26,-0.08 0.51,-0.17 0.74,-0.29 0.25,-0.12 0.35,-0.42 0.23,-0.67 -0.12,-0.25 -0.42,-0.35 -0.67,-0.23 -0.75,0.37 -1.64,0.5 -2.65,0.42 -0.5,-0.36 -1.06,-1.59 -1.19,-3.14 -0.06,-0.79 -0.07,-2.69 1.09,-3.77 1.31,0.11 2.46,0.03 3.58,-0.05 1.85,-0.14 3.76,-0.27 6.53,0.46 0,0.21 -0.01,0.46 0,0.76 0.02,0.74 0.57,1.36 1.3,1.47 0.08,0.01 0.16,0.02 0.23,0.02 0.4,0 0.78,-0.16 1.07,-0.44 0.23,-0.22 0.36,-0.5 0.42,-0.81 2.91,1.91 4.54,5.49 4.16,7.14 z m 3.19,-1.88 c -0.73,0.41 -1.46,0.74 -2.17,0.99 -0.14,-1.56 -1.06,-3.66 -2.63,-5.39 0.54,-0.38 1.03,-0.78 1.43,-1.22 0.01,0 0.03,0 0.04,0 0.37,-0.08 0.75,-0.18 1.13,-0.29 0.72,0.23 1.52,1.26 2.02,2.63 0.5,1.36 0.56,2.68 0.17,3.29 z m 15.88,-14.88 c -0.89,0.63 -2.27,0.06 -2.28,0.05 0,0 -0.02,0 -0.02,0 0,0 -0.01,-0.01 -0.02,-0.01 -0.03,0 -0.05,0 -0.08,0 -0.03,0 -0.06,-0.01 -0.09,0 -0.03,0 -0.07,0.01 -0.1,0.02 -0.03,0 -0.06,0.01 -0.08,0.03 -0.03,0.01 -0.06,0.04 -0.09,0.06 -0.02,0.02 -0.05,0.03 -0.07,0.05 -0.02,0.03 -0.04,0.06 -0.06,0.09 -0.01,0.02 -0.03,0.03 -0.04,0.06 0,0 0,0.02 0,0.02 0,0 -0.01,0.02 -0.01,0.02 -1.15,3.69 -6.4,10.3 -11.68,13.76 0.07,-0.93 -0.15,-2 -0.47,-2.88 -0.36,-0.97 -0.96,-2.03 -1.73,-2.69 5.15,-1.88 10.97,-6.11 13.48,-8.9 0.75,-0.36 2.01,-0.23 2.49,-0.18 0.41,0.05 0.83,-0.21 1.24,-0.46 0.13,-0.08 0.33,-0.2 0.47,-0.27 0.01,0.05 0.01,0.11 0,0.18 -0.06,0.34 -0.38,0.76 -0.84,1.09 z"
         inkscape:connector-curvature="0"
         style="fill:#ff007b;fill-opacity:1" />
      <text
         id="text833"
         font-weight="bold"
         font-size="5px"
         y="120"
         x="0"
         style="font-weight:bold;font-size:5px;font-family:'Helvetica Neue', Helvetica, Arial-Unicode, Arial, Sans-serif;fill:#000000" />
    </g>
  </g>
</svg>
